<svg width="36" height="36" viewBox="0 0 36 36" fill="none" xmlns="http://www.w3.org/2000/svg">
<path d="M24.3833 11.3251C22.1833 9.82506 19.4666 10.5251 18 12.2417C16.5333 10.5251 13.8166 9.81672 11.6166 11.3251C10.45 12.1251 9.71664 13.4751 9.66664 14.9001C9.54997 18.1334 12.4166 20.7251 16.7916 24.7001L16.875 24.7751C17.5083 25.3501 18.4833 25.3501 19.1166 24.7667L19.2083 24.6834C23.5833 20.7167 26.4416 18.1251 26.3333 14.8917C26.2833 13.4751 25.55 12.1251 24.3833 11.3251ZM18.0833 23.4584L18 23.5417L17.9166 23.4584C13.95 19.8667 11.3333 17.4917 11.3333 15.0834C11.3333 13.4167 12.5833 12.1667 14.25 12.1667C15.5333 12.1667 16.7833 12.9917 17.225 14.1334H18.7833C19.2166 12.9917 20.4666 12.1667 21.75 12.1667C23.4166 12.1667 24.6666 13.4167 24.6666 15.0834C24.6666 17.4917 22.05 19.8667 18.0833 23.4584Z" fill="#2F2F2F"/>
</svg>
