<svg width="103" height="22" viewBox="0 0 103 22" fill="none" xmlns="http://www.w3.org/2000/svg">
<g clip-path="url(#clip0_755_1579)">
<path d="M30.9469 16.4063V5.71729H32.9241V14.5739H37.7174V16.4063H30.9469Z" fill="#754F23"/>
<path d="M41.9864 16.6201C41.2474 16.6201 40.5833 16.4674 39.9941 16.162C39.4049 15.8566 38.9406 15.4138 38.6011 14.8335C38.2616 14.2533 38.0918 13.5559 38.0918 12.7415V12.4972C38.0918 11.6828 38.2616 10.9855 38.6011 10.4052C38.9406 9.82497 39.4049 9.38213 39.9941 9.07671C40.5833 8.77136 41.2474 8.61865 41.9864 8.61865C42.7253 8.61865 43.3894 8.77136 43.9786 9.07671C44.5677 9.38213 45.0321 9.82497 45.3716 10.4052C45.7112 10.9855 45.8809 11.6828 45.8809 12.4972V12.7415C45.8809 13.5559 45.7112 14.2533 45.3716 14.8335C45.0321 15.4138 44.5677 15.8566 43.9786 16.162C43.3894 16.4674 42.7253 16.6201 41.9864 16.6201ZM41.9864 14.9099C42.5655 14.9099 43.0449 14.7215 43.4244 14.3449C43.8038 13.958 43.9936 13.4083 43.9936 12.6957V12.543C43.9936 11.8304 43.8038 11.2858 43.4244 10.9091C43.0549 10.5223 42.5755 10.3288 41.9864 10.3288C41.4072 10.3288 40.9278 10.5223 40.5483 10.9091C40.1689 11.2858 39.9791 11.8304 39.9791 12.543V12.6957C39.9791 13.4083 40.1689 13.958 40.5483 14.3449C40.9278 14.7215 41.4072 14.9099 41.9864 14.9099Z" fill="#754F23"/>
<path d="M46.5895 12.6499V12.4056C46.5895 11.6115 46.7442 10.9346 47.0538 10.3746C47.3634 9.80463 47.7728 9.37196 48.2821 9.07671C48.8014 8.77136 49.3656 8.61865 49.9748 8.61865C50.6538 8.61865 51.1681 8.74078 51.5176 8.9851C51.8671 9.22942 52.1217 9.48392 52.2815 9.74858H52.5512V8.83239H54.4086V17.75C54.4086 18.2693 54.2588 18.6815 53.9592 18.9869C53.6596 19.3025 53.2602 19.4603 52.7609 19.4603H47.7878V17.7806H52.1018C52.3814 17.7806 52.5212 17.6279 52.5212 17.3225V15.3527H52.2516C52.1517 15.5156 52.0119 15.6835 51.8322 15.8566C51.6524 16.0194 51.4128 16.1569 51.1132 16.2689C50.8136 16.3808 50.4341 16.4369 49.9748 16.4369C49.3656 16.4369 48.8014 16.2892 48.2821 15.994C47.7728 15.6886 47.3634 15.256 47.0538 14.6961C46.7442 14.126 46.5895 13.4439 46.5895 12.6499ZM50.514 14.7571C51.0932 14.7571 51.5775 14.5688 51.967 14.1922C52.3564 13.8155 52.5512 13.2862 52.5512 12.6041V12.4514C52.5512 11.7591 52.3564 11.2298 51.967 10.8633C51.5875 10.4867 51.1032 10.2983 50.514 10.2983C49.9348 10.2983 49.4505 10.4867 49.061 10.8633C48.6716 11.2298 48.4768 11.7591 48.4768 12.4514V12.6041C48.4768 13.2862 48.6716 13.8155 49.061 14.1922C49.4505 14.5688 49.9348 14.7571 50.514 14.7571Z" fill="#754F23"/>
<path d="M59.3621 16.6201C58.6232 16.6201 57.9591 16.4674 57.3698 16.162C56.7807 15.8566 56.3163 15.4138 55.9768 14.8335C55.6373 14.2533 55.4675 13.5559 55.4675 12.7415V12.4972C55.4675 11.6828 55.6373 10.9855 55.9768 10.4052C56.3163 9.82497 56.7807 9.38213 57.3698 9.07671C57.9591 8.77136 58.6232 8.61865 59.3621 8.61865C60.1011 8.61865 60.7651 8.77136 61.3543 9.07671C61.9435 9.38213 62.4078 9.82497 62.7474 10.4052C63.0869 10.9855 63.2567 11.6828 63.2567 12.4972V12.7415C63.2567 13.5559 63.0869 14.2533 62.7474 14.8335C62.4078 15.4138 61.9435 15.8566 61.3543 16.162C60.7651 16.4674 60.1011 16.6201 59.3621 16.6201ZM59.3621 14.9099C59.9413 14.9099 60.4206 14.7215 60.8001 14.3449C61.1796 13.958 61.3693 13.4083 61.3693 12.6957V12.543C61.3693 11.8304 61.1796 11.2858 60.8001 10.9091C60.4306 10.5223 59.9513 10.3288 59.3621 10.3288C58.7829 10.3288 58.3036 10.5223 57.9241 10.9091C57.5446 11.2858 57.3549 11.8304 57.3549 12.543V12.6957C57.3549 13.4083 57.5446 13.958 57.9241 14.3449C58.3036 14.7215 58.7829 14.9099 59.3621 14.9099Z" fill="#754F23"/>
<path d="M64.3247 16.4062V8.83225H66.2123V16.4062H64.3247ZM65.2685 7.94664C64.9286 7.94664 64.6396 7.83462 64.3995 7.61064C64.17 7.38673 64.0551 7.09148 64.0551 6.72501C64.0551 6.35854 64.17 6.06332 64.3995 5.83936C64.6396 5.6154 64.9286 5.50342 65.2685 5.50342C65.6181 5.50342 65.9078 5.6154 66.1369 5.83936C66.3668 6.06332 66.482 6.35854 66.482 6.72501C66.482 7.09148 66.3668 7.38673 66.1369 7.61064C65.9078 7.83462 65.6181 7.94664 65.2685 7.94664Z" fill="#754F23"/>
<path d="M67.6298 19.4603V8.83239H69.487V9.74858H69.7567C69.926 9.4534 70.1906 9.19379 70.5505 8.96981C70.9097 8.73573 71.4241 8.61865 72.0936 8.61865C72.6922 8.61865 73.2465 8.77136 73.7557 9.07671C74.2656 9.37196 74.675 9.80968 74.984 10.3899C75.2936 10.9702 75.4488 11.6726 75.4488 12.4972V12.7415C75.4488 13.5661 75.2936 14.2685 74.984 14.8488C74.675 15.429 74.2656 15.8719 73.7557 16.1773C73.2465 16.4725 72.6922 16.6201 72.0936 16.6201C71.6442 16.6201 71.2644 16.5641 70.9548 16.4521C70.6554 16.3503 70.4108 16.218 70.2209 16.0551C70.0413 15.882 69.8964 15.709 69.7864 15.5359H69.5166V19.4603H67.6298ZM71.5238 14.9404C72.1135 14.9404 72.5976 14.7521 72.9768 14.3754C73.3662 13.9885 73.5613 13.4287 73.5613 12.6957V12.543C73.5613 11.8101 73.3662 11.2553 72.9768 10.8786C72.5873 10.4917 72.1032 10.2983 71.5238 10.2983C70.9451 10.2983 70.4604 10.4917 70.0709 10.8786C69.6814 11.2553 69.487 11.8101 69.487 12.543V12.6957C69.487 13.4287 69.6814 13.9885 70.0709 14.3754C70.4604 14.7521 70.9451 14.9404 71.5238 14.9404Z" fill="#754F23"/>
<path d="M79.5933 16.6201C78.6244 16.6201 77.8307 16.4063 77.2114 15.9788C76.5927 15.5512 76.2181 14.9404 76.088 14.1464L77.8255 13.6882C77.8957 14.0446 78.0103 14.3245 78.1706 14.5281C78.3399 14.7317 78.5446 14.8793 78.7847 14.971C79.0338 15.0524 79.3036 15.0931 79.5933 15.0931C80.0329 15.0931 80.3574 15.0168 80.5666 14.8641C80.7765 14.7012 80.8814 14.5027 80.8814 14.2685C80.8814 14.0344 80.7816 13.8562 80.5821 13.7341C80.3819 13.6018 80.0626 13.4949 79.6235 13.4134L79.2038 13.337C78.6843 13.2352 78.2105 13.0978 77.7811 12.9248C77.3511 12.7415 77.0067 12.4921 76.7472 12.1765C76.4878 11.861 76.3578 11.4538 76.3578 10.955C76.3578 10.2016 76.6275 9.62646 77.167 9.22942C77.7058 8.82222 78.4152 8.61865 79.2939 8.61865C80.1224 8.61865 80.8119 8.80693 81.361 9.18362C81.9101 9.56031 82.2693 10.054 82.4393 10.6648L80.687 11.2145C80.6072 10.8277 80.4424 10.5528 80.1926 10.3899C79.9525 10.2271 79.6531 10.1456 79.2939 10.1456C78.9341 10.1456 78.6598 10.2118 78.4699 10.3441C78.28 10.4663 78.1854 10.6394 78.1854 10.8633C78.1854 11.1076 78.2852 11.2909 78.4847 11.413C78.6843 11.525 78.954 11.6115 79.2939 11.6726L79.713 11.749C80.2724 11.8507 80.7765 11.9882 81.2258 12.1613C81.6855 12.3242 82.0447 12.5634 82.3047 12.879C82.5738 13.1844 82.709 13.6018 82.709 14.1311C82.709 14.9251 82.4245 15.541 81.8554 15.9788C81.296 16.4063 80.5421 16.6201 79.5933 16.6201Z" fill="#754F23"/>
<path d="M86.52 16.5284C85.9406 16.5284 85.4314 16.396 84.9917 16.1313C84.5623 15.8565 84.2282 15.4798 83.9881 15.0014C83.7486 14.5229 83.6289 13.9732 83.6289 13.3522V8.83228H85.5164V13.1995C85.5164 13.7696 85.6509 14.1971 85.9207 14.4822C86.2 14.7672 86.5947 14.9097 87.1039 14.9097C87.6833 14.9097 88.1326 14.7163 88.4519 14.3295C88.7718 13.9325 88.9315 13.3827 88.9315 12.6803V8.83228H90.819V16.4062H88.9611V15.4137H88.692C88.5723 15.6682 88.347 15.9175 88.018 16.1619C87.6884 16.4062 87.1888 16.5284 86.52 16.5284Z" fill="#754F23"/>
<path d="M92.2449 16.4062V8.83233H94.1021V9.65691H94.3718C94.5019 9.40242 94.7169 9.18356 95.0162 9.00033C95.3156 8.80687 95.7102 8.71021 96.1994 8.71021C96.7286 8.71021 97.1535 8.81711 97.4728 9.03085C97.7921 9.23448 98.0367 9.5042 98.2066 9.8402H98.4764C98.6463 9.51444 98.8858 9.24465 99.1954 9.03085C99.5051 8.81711 99.9441 8.71021 100.513 8.71021C100.973 8.71021 101.387 8.81199 101.757 9.01562C102.136 9.20902 102.436 9.50932 102.656 9.91652C102.885 10.3136 103 10.8174 103 11.4283V16.4062H101.113V11.5657C101.113 11.1483 101.008 10.8378 100.798 10.6342C100.589 10.4205 100.294 10.3136 99.9145 10.3136C99.4851 10.3136 99.1504 10.456 98.9109 10.7411C98.6811 11.0159 98.5665 11.413 98.5665 11.9321V16.4062H96.679V11.5657C96.679 11.1483 96.5741 10.8378 96.3642 10.6342C96.1544 10.4205 95.8602 10.3136 95.4804 10.3136C95.051 10.3136 94.7162 10.456 94.4768 10.7411C94.2469 11.0159 94.1324 11.413 94.1324 11.9321V16.4062H92.2449Z" fill="#754F23"/>
<path d="M24.9652 10.6802C24.9652 7.98027 23.9131 5.39087 22.0403 3.48171C20.1675 1.57256 17.6274 0.5 14.9789 0.5C12.3304 0.5 9.79034 1.57256 7.91754 3.48171C6.04474 5.39087 4.99261 7.98027 4.99261 10.6802H8.11337C9.14749 10.6802 9.95398 9.79677 10.3328 8.8158C10.5814 8.17176 10.9588 7.57989 11.4482 7.08094C12.3846 6.12637 13.6546 5.5901 14.9789 5.5901C16.3032 5.5901 17.5732 6.12637 18.5096 7.08094C19.446 8.03552 19.972 9.33024 19.972 10.6802H24.9652Z" fill="url(#paint0_linear_755_1579)"/>
<path d="M19.2124 14.5759C19.7143 13.3408 19.9726 12.017 19.9726 10.6802H24.9652C24.9652 16.3025 20.4942 20.8603 14.9789 20.8603C14.1152 20.8603 13.277 20.7486 12.4778 20.5384C12.93 20.4196 13.3745 20.2684 13.8079 20.0854C15.0195 19.5738 16.1203 18.824 17.0477 17.8786C17.975 16.9333 18.7106 15.8111 19.2124 14.5759Z" fill="#FBCF8E"/>
<path d="M0 10.6802C-1.8761e-07 12.0171 0.258303 13.3409 0.760159 14.576C1.26202 15.8111 1.9976 16.9334 2.92492 17.8787C3.85223 18.824 4.95311 19.5739 6.1647 20.0855C7.37628 20.5971 8.67485 20.8604 9.9863 20.8604C11.2977 20.8604 12.5963 20.5971 13.8079 20.0855C15.0195 19.5739 16.1203 18.824 17.0477 17.8787C17.975 16.9334 18.7105 15.8111 19.2124 14.576C19.7143 13.3409 19.9726 12.0171 19.9726 10.6802H16.8518C15.8177 10.6802 15.0112 11.5636 14.6324 12.5445C14.6217 12.5725 14.6106 12.6003 14.5993 12.6281C14.3484 13.2457 13.9806 13.8068 13.5169 14.2794C13.0533 14.7521 12.5028 15.1271 11.8971 15.3829C11.2913 15.6387 10.642 15.7703 9.9863 15.7703C9.33058 15.7703 8.68129 15.6387 8.07552 15.3829C7.46969 15.1271 6.91928 14.7521 6.45559 14.2794C5.99194 13.8068 5.62415 13.2457 5.37323 12.6281C5.12229 12.0105 4.99314 11.3486 4.99314 10.6802H0Z" fill="url(#paint1_linear_755_1579)"/>
<path d="M0.00140381 10.6802C0.00140381 5.05781 4.4724 0.5 9.98765 0.5C10.8512 0.5 11.6891 0.611724 12.4883 0.821774C10.7734 1.27212 9.19146 2.18351 7.91793 3.48172C6.04514 5.39085 4.99303 7.98027 4.99303 10.6802H0.00140381Z" fill="#754F23"/>
</g>
<defs>
<linearGradient id="paint0_linear_755_1579" x1="24.9652" y1="5.5901" x2="4.99261" y2="5.5901" gradientUnits="userSpaceOnUse">
<stop stop-color="#754F23"/>
<stop offset="1" stop-color="#1E1E1E"/>
</linearGradient>
<linearGradient id="paint1_linear_755_1579" x1="6.54771e-07" y1="15.7703" x2="19.9726" y2="15.7703" gradientUnits="userSpaceOnUse">
<stop stop-color="#FBDC8E"/>
<stop offset="1" stop-color="#FB958E"/>
</linearGradient>
<clipPath id="clip0_755_1579">
<rect width="103" height="21" fill="white" transform="translate(0 0.5)"/>
</clipPath>
</defs>
</svg>
