<svg width="50" height="20" viewBox="0 0 50 20" fill="none" xmlns="http://www.w3.org/2000/svg">
<g clip-path="url(#clip0_755_8982)">
<path d="M32.5772 0C29.0316 0 25.8483 2.28235 25.8483 6.47059C25.8483 11.2941 31.4716 11.6235 31.4716 14.0235C31.4716 15.0353 30.5185 15.9529 28.9173 15.9529C26.6298 15.9529 24.9142 14.6824 24.9142 14.6824L24.1899 18.9176C24.1899 18.9176 26.1533 20 28.7838 20C32.6725 20 35.7225 17.6235 35.7225 13.3412C35.7225 8.25882 30.0801 7.92941 30.0801 5.69412C30.0801 4.89412 30.8616 4.02353 32.4628 4.02353C34.2737 4.02353 35.7606 4.94118 35.7606 4.94118L36.4849 0.847059C36.4659 0.847059 34.8456 0 32.5772 0ZM0.0953107 0.305882L0 0.917647C0 0.917647 1.48685 1.24706 2.84026 1.92941C4.57491 2.70588 4.68929 3.15294 4.99428 4.54118L8.17766 19.6706H12.4476L18.9859 0.305882H14.735L10.5223 13.4824L8.80671 2.30588C8.65421 1.03529 7.8536 0.305882 6.86237 0.305882H0.0953107ZM20.7015 0.305882L17.3656 19.6706H21.4258L24.7427 0.305882H20.7015ZM43.3092 0.305882C42.337 0.305882 41.8223 0.941176 41.4411 2.07059L35.4937 19.6706H39.7446L40.5642 16.7294H45.7491L46.2448 19.6706H50L46.7404 0.305882H43.3092ZM43.862 5.55294L45.1201 12.8235H41.7461L43.862 5.55294Z" fill="#1434CB"/>
</g>
<defs>
<clipPath id="clip0_755_8982">
<rect width="50" height="20" fill="white"/>
</clipPath>
</defs>
</svg>
