<svg width="968" height="24" viewBox="0 0 968 24" fill="none" xmlns="http://www.w3.org/2000/svg">
<path d="M12 17.2698L16.15 19.7798C16.91 20.2398 17.84 19.5598 17.64 18.6998L16.54 13.9798L20.21 10.7998C20.88 10.2198 20.52 9.11977 19.64 9.04977L14.81 8.63977L12.92 4.17977C12.58 3.36977 11.42 3.36977 11.08 4.17977L9.19001 8.62977L4.36001 9.03977C3.48001 9.10977 3.12001 10.2098 3.79001 10.7898L7.46001 13.9698L6.36001 18.6898C6.16001 19.5498 7.09001 20.2298 7.85001 19.7698L12 17.2698Z" fill="#ECC63F"/>
<path d="M36 17.2698L40.15 19.7798C40.91 20.2398 41.84 19.5598 41.64 18.6998L40.54 13.9798L44.21 10.7998C44.88 10.2198 44.52 9.11977 43.64 9.04977L38.81 8.63977L36.92 4.17977C36.58 3.36977 35.42 3.36977 35.08 4.17977L33.19 8.62977L28.36 9.03977C27.48 9.10977 27.12 10.2098 27.79 10.7898L31.46 13.9698L30.36 18.6898C30.16 19.5498 31.09 20.2298 31.85 19.7698L36 17.2698Z" fill="#ECC63F"/>
<path d="M60 17.2698L64.15 19.7798C64.91 20.2398 65.84 19.5598 65.64 18.6998L64.54 13.9798L68.21 10.7998C68.88 10.2198 68.52 9.11977 67.64 9.04977L62.81 8.63977L60.92 4.17977C60.58 3.36977 59.42 3.36977 59.08 4.17977L57.19 8.62977L52.36 9.03977C51.48 9.10977 51.12 10.2098 51.79 10.7898L55.46 13.9698L54.36 18.6898C54.16 19.5498 55.09 20.2298 55.85 19.7698L60 17.2698Z" fill="#ECC63F"/>
<path d="M84 17.2698L88.15 19.7798C88.91 20.2398 89.84 19.5598 89.64 18.6998L88.54 13.9798L92.21 10.7998C92.88 10.2198 92.52 9.11977 91.64 9.04977L86.81 8.63977L84.92 4.17977C84.58 3.36977 83.42 3.36977 83.08 4.17977L81.19 8.62977L76.36 9.03977C75.48 9.10977 75.12 10.2098 75.79 10.7898L79.46 13.9698L78.36 18.6898C78.16 19.5498 79.09 20.2298 79.85 19.7698L84 17.2698Z" fill="#ECC63F"/>
<path d="M115.65 9.04L110.81 8.62L108.92 4.17C108.58 3.36 107.42 3.36 107.08 4.17L105.19 8.63L100.36 9.04C99.48 9.11 99.12 10.21 99.79 10.79L103.46 13.97L102.36 18.69C102.16 19.55 103.09 20.23 103.85 19.77L108 17.27L112.15 19.78C112.91 20.24 113.84 19.56 113.64 18.7L112.54 13.97L116.21 10.79C116.88 10.21 116.53 9.11 115.65 9.04ZM108 15.4L104.24 17.67L105.24 13.39L101.92 10.51L106.3 10.13L108 6.1L109.71 10.14L114.09 10.52L110.77 13.4L111.77 17.68L108 15.4Z" fill="#616161"/>
</svg>
