<svg width="24" height="24" viewBox="0 0 24 24" fill="none" xmlns="http://www.w3.org/2000/svg">
<path d="M0 23.9994H5L19.7467 9.25269L14.7467 4.25269L0 18.9994V23.9994ZM2.66667 20.106L14.7467 8.02602L15.9733 9.25269L3.89333 21.3327H2.66667V20.106ZM20.4933 0.386019C20.37 0.262414 20.2235 0.164351 20.0622 0.0974423C19.9009 0.0305337 19.728 -0.00390625 19.5533 -0.00390625C19.3787 -0.00390625 19.2058 0.0305337 19.0445 0.0974423C18.8832 0.164351 18.7367 0.262414 18.6133 0.386019L16.1733 2.82602L21.1733 7.82602L23.6133 5.38602C23.7369 5.26267 23.835 5.11615 23.9019 4.95485C23.9688 4.79355 24.0033 4.62064 24.0033 4.44602C24.0033 4.27139 23.9688 4.09848 23.9019 3.93719C23.835 3.77589 23.7369 3.62937 23.6133 3.50602L20.4933 0.386019Z" fill="#BDBDBD"/>
</svg>
