<svg width="20" height="24" viewBox="0 0 20 24" fill="none" xmlns="http://www.w3.org/2000/svg">
<path d="M2.00033 21.3333C2.00033 22.8 3.20033 24 4.66699 24H15.3337C16.8003 24 18.0003 22.8 18.0003 21.3333V8C18.0003 6.53333 16.8003 5.33333 15.3337 5.33333H4.66699C3.20033 5.33333 2.00033 6.53333 2.00033 8V21.3333ZM6.00033 8H14.0003C14.7337 8 15.3337 8.6 15.3337 9.33333V20C15.3337 20.7333 14.7337 21.3333 14.0003 21.3333H6.00033C5.26699 21.3333 4.66699 20.7333 4.66699 20V9.33333C4.66699 8.6 5.26699 8 6.00033 8ZM14.667 1.33333L13.7203 0.386667C13.4803 0.146667 13.1337 0 12.787 0H7.21366C6.86699 0 6.52033 0.146667 6.28033 0.386667L5.33366 1.33333H2.00033C1.26699 1.33333 0.666992 1.93333 0.666992 2.66667C0.666992 3.4 1.26699 4 2.00033 4H18.0003C18.7337 4 19.3337 3.4 19.3337 2.66667C19.3337 1.93333 18.7337 1.33333 18.0003 1.33333H14.667Z" fill="#BDBDBD"/>
</svg>
