<svg width="20" height="20" viewBox="0 0 20 20" fill="none" xmlns="http://www.w3.org/2000/svg">
<path d="M16.3842 3.32506C14.1842 1.82506 11.4675 2.52506 10.0008 4.24172C8.53416 2.52506 5.8175 1.81672 3.6175 3.32506C2.45083 4.12506 1.7175 5.47506 1.6675 6.90006C1.55083 10.1334 4.4175 12.7251 8.7925 16.7001L8.87583 16.7751C9.50916 17.3501 10.4842 17.3501 11.1175 16.7667L11.2092 16.6834C15.5842 12.7167 18.4425 10.1251 18.3342 6.89172C18.2842 5.47506 17.5508 4.12506 16.3842 3.32506ZM10.0842 15.4584L10.0008 15.5417L9.9175 15.4584C5.95083 11.8667 3.33416 9.49172 3.33416 7.08339C3.33416 5.41672 4.58416 4.16672 6.25083 4.16672C7.53416 4.16672 8.78416 4.99172 9.22583 6.13339H10.7842C11.2175 4.99172 12.4675 4.16672 13.7508 4.16672C15.4175 4.16672 16.6675 5.41672 16.6675 7.08339C16.6675 9.49172 14.0508 11.8667 10.0842 15.4584Z" fill="#2F2F2F"/>
</svg>
