<svg width="18" height="13" viewBox="0 0 18 13" fill="none" xmlns="http://www.w3.org/2000/svg">
<path d="M8 12.3254H10C10.55 12.3254 11 11.8754 11 11.3254C11 10.7754 10.55 10.3254 10 10.3254H8C7.45 10.3254 7 10.7754 7 11.3254C7 11.8754 7.45 12.3254 8 12.3254ZM0 1.32544C0 1.87544 0.45 2.32544 1 2.32544H17C17.55 2.32544 18 1.87544 18 1.32544C18 0.775439 17.55 0.325439 17 0.325439H1C0.45 0.325439 0 0.775439 0 1.32544ZM4 7.32544H14C14.55 7.32544 15 6.87544 15 6.32544C15 5.77544 14.55 5.32544 14 5.32544H4C3.45 5.32544 3 5.77544 3 6.32544C3 6.87544 3.45 7.32544 4 7.32544Z" fill="black"/>
</svg>
