<svg width="36" height="36" viewBox="0 0 36 36" fill="none" xmlns="http://www.w3.org/2000/svg">
<path d="M23 13.0001H21.3333C21.3333 11.1584 19.8416 9.66675 18 9.66675C16.1583 9.66675 14.6666 11.1584 14.6666 13.0001H13C12.0833 13.0001 11.3333 13.7501 11.3333 14.6667V24.6667C11.3333 25.5834 12.0833 26.3334 13 26.3334H23C23.9166 26.3334 24.6666 25.5834 24.6666 24.6667V14.6667C24.6666 13.7501 23.9166 13.0001 23 13.0001ZM18 11.3334C18.9166 11.3334 19.6666 12.0834 19.6666 13.0001H16.3333C16.3333 12.0834 17.0833 11.3334 18 11.3334ZM23 24.6667H13V14.6667H14.6666V16.3334C14.6666 16.7917 15.0416 17.1667 15.5 17.1667C15.9583 17.1667 16.3333 16.7917 16.3333 16.3334V14.6667H19.6666V16.3334C19.6666 16.7917 20.0416 17.1667 20.5 17.1667C20.9583 17.1667 21.3333 16.7917 21.3333 16.3334V14.6667H23V24.6667Z" fill="#2F2F2F"/>
</svg>
