<svg width="50" height="30" viewBox="0 0 50 30" fill="none" xmlns="http://www.w3.org/2000/svg">
<g clip-path="url(#clip0_755_8984)">
<path d="M31.7596 3.20801H18.2403V26.7913H31.7596V3.20801Z" fill="#FF5F00"/>
<path d="M19.0987 14.9996C19.0987 10.4162 21.2875 6.04123 24.9785 3.2079C18.2832 -1.9171 8.58366 -0.792105 3.30469 5.74956C-1.97428 12.2496 -0.815479 21.6662 5.92272 26.7912C11.545 31.0829 19.3991 31.0829 25.0214 26.7912C21.2875 23.9579 19.0987 19.5829 19.0987 14.9996Z" fill="#EB001B"/>
<path d="M50 14.9996C50 23.2912 43.0901 29.9996 34.5493 29.9996C31.0729 29.9996 27.7253 28.8746 25.0214 26.7912C31.7167 21.6662 32.8755 12.2496 27.5965 5.7079C26.824 4.79123 25.9656 3.91623 25.0214 3.2079C31.7167 -1.9171 41.4592 -0.792105 46.6952 5.74956C48.8412 8.37456 50 11.6246 50 14.9996Z" fill="#F79E1B"/>
<path d="M48.5407 24.2913V23.7913H48.7553V23.708H48.2403V23.7913H48.4549V24.2913H48.5407ZM49.5278 24.2913V23.708H49.3562L49.1845 24.1247L49.0128 23.708H48.8412V24.2913H48.9699V23.833L49.1416 24.208H49.2703L49.442 23.833V24.2913H49.5278Z" fill="#F79E1B"/>
</g>
<defs>
<clipPath id="clip0_755_8984">
<rect width="50" height="30" fill="white"/>
</clipPath>
</defs>
</svg>
