<svg width="40" height="30" viewBox="0 0 40 30" fill="none" xmlns="http://www.w3.org/2000/svg">
<path d="M37.2059 6.37229C36.7689 4.65119 35.4814 3.2959 33.8463 2.83594C30.883 2 19 2 19 2C19 2 7.11708 2 4.15364 2.83594C2.51871 3.2959 1.23102 4.65119 0.794055 6.37229C0 9.49165 0 16 0 16C0 16 0 22.5083 0.794055 25.6279C1.23102 27.3488 2.51871 28.7041 4.15364 29.1643C7.11708 30 19 30 19 30C19 30 30.883 30 33.8463 29.1643C35.4814 28.7041 36.7689 27.3488 37.2059 25.6279C38 22.5083 38 16 38 16C38 16 38 9.49165 37.2059 6.37229Z" fill="#ED1D24"/>
<path d="M15.1133 21.9092L25.0451 16.0004L15.1133 10.091V21.9092Z" fill="white"/>
</svg>
