<svg width="24" height="29" viewBox="0 0 24 29" fill="none" xmlns="http://www.w3.org/2000/svg">
<path d="M21.3333 20.6666V13.7333C20.6667 13.8666 20 14 19.3333 14H18.6667V22H5.33333V12.6666C5.33333 8.93329 8.26667 5.99996 12 5.99996C12.1333 4.26663 12.9333 2.79996 14 1.59996C13.6 1.06663 12.8 0.666626 12 0.666626C10.5333 0.666626 9.33333 1.86663 9.33333 3.33329V3.73329C5.33333 4.93329 2.66667 8.53329 2.66667 12.6666V20.6666L0 23.3333V24.6666H24V23.3333L21.3333 20.6666ZM9.33333 26C9.33333 27.4666 10.5333 28.6666 12 28.6666C13.4667 28.6666 14.6667 27.4666 14.6667 26H9.33333ZM24 6.66663C24 9.19996 21.8667 11.3333 19.3333 11.3333C16.8 11.3333 14.6667 9.19996 14.6667 6.66663C14.6667 4.13329 16.8 1.99996 19.3333 1.99996C21.8667 1.99996 24 4.13329 24 6.66663Z" fill="#757575"/>
</svg>
