<svg width="32" height="32" viewBox="0 0 32 32" fill="none" xmlns="http://www.w3.org/2000/svg">
<path d="M16.0013 2.66663C8.6413 2.66663 2.66797 8.63996 2.66797 16C2.66797 23.36 8.6413 29.3333 16.0013 29.3333C23.3613 29.3333 29.3346 23.36 29.3346 16C29.3346 8.63996 23.3613 2.66663 16.0013 2.66663ZM9.8013 24.6666C11.548 23.4133 13.6813 22.6666 16.0013 22.6666C18.3213 22.6666 20.4546 23.4133 22.2013 24.6666C20.4546 25.92 18.3213 26.6666 16.0013 26.6666C13.6813 26.6666 11.548 25.92 9.8013 24.6666ZM24.188 22.8266C21.8525 20.9943 18.9698 19.9984 16.0013 19.9984C13.0328 19.9984 10.1501 20.9943 7.81464 22.8266C6.21053 20.9137 5.33237 18.4964 5.33464 16C5.33464 10.1066 10.108 5.33329 16.0013 5.33329C21.8946 5.33329 26.668 10.1066 26.668 16C26.668 18.6 25.7346 20.9733 24.188 22.8266Z" fill="#757575"/>
<path d="M15.9987 8C13.4254 8 11.332 10.0933 11.332 12.6667C11.332 15.24 13.4254 17.3333 15.9987 17.3333C18.572 17.3333 20.6654 15.24 20.6654 12.6667C20.6654 10.0933 18.572 8 15.9987 8ZM15.9987 14.6667C14.892 14.6667 13.9987 13.7733 13.9987 12.6667C13.9987 11.56 14.892 10.6667 15.9987 10.6667C17.1054 10.6667 17.9987 11.56 17.9987 12.6667C17.9987 13.7733 17.1054 14.6667 15.9987 14.6667Z" fill="#757575"/>
</svg>
