<svg width="66" height="24" viewBox="0 0 66 24" fill="none" xmlns="http://www.w3.org/2000/svg">
<g clip-path="url(#clip0_755_8991)">
<path d="M62.5459 0.0300713L65.7557 9.47992L59.0085 18.9287L62.5459 0.0300713Z" fill="#008C44"/>
<path d="M60.2965 0.0300713L63.5033 9.47992L56.7533 18.9287L60.2965 0.0300713Z" fill="#F47920"/>
<path d="M14.6301 13.7414C14.3836 14.5097 13.8855 15.0662 13.2912 15.1779H12.8513H4.22691L4.95639 11.3133H11.6109H13.6635H14.1076C14.4411 11.4356 14.7027 11.8261 14.7789 12.3209C14.789 12.4327 14.7954 12.5444 14.7954 12.6604C14.7954 12.7189 14.7933 12.7774 14.7897 12.8349C14.789 12.8593 14.789 12.8828 14.7875 12.9072L14.6301 13.7414ZM6.38086 3.75318H13.0289H15.1109H15.5493C15.8009 3.84469 16.0115 4.08729 16.1336 4.41183C16.1782 4.63954 16.2034 4.87895 16.2034 5.12581C16.2034 5.25988 16.1947 5.38863 16.1811 5.51738L16.1574 5.64081L16.069 6.11325C15.8332 6.93576 15.3129 7.53482 14.6905 7.64655H14.2679H5.64706L6.38086 3.75318ZM15.931 18.3073C16.2458 17.9487 16.4535 17.505 16.5534 16.9762L17.6206 11.3133C17.7184 10.7983 17.6753 10.3663 17.4934 10.0173C17.3116 9.66825 17.0428 9.49374 16.6878 9.49374C17.0428 9.49374 17.3784 9.31498 17.6947 8.9564C18.0087 8.59781 18.2157 8.16155 18.3127 7.64655L19.3786 1.99111C19.4828 1.44099 19.4476 0.987707 19.2744 0.626993C19.1012 0.267344 18.8302 0.0864525 18.4615 0.0864525H4.54026L1.00281 18.8457H14.9248C15.2798 18.8457 15.6155 18.6659 15.931 18.3073Z" fill="#6D6E71"/>
<path d="M33.9628 0.102448L32.5635 7.637H22.5203L23.9204 0.102448H21.4236L17.9487 18.7979H20.4462L21.8412 11.2963H31.8829L30.4893 18.7979H32.9868L36.461 0.102448H33.9628Z" fill="#6D6E71"/>
<path d="M37.1872 18.8574H34.6732L38.1689 0.166271H40.6822L37.1872 18.8574Z" fill="#6D6E71"/>
<path d="M58.1636 0.149191L47.7331 13.237L44.095 4.28516L42.4132 0.149191H42.3679L41.5759 4.39689L38.8937 18.7861H41.3912L43.2714 8.69992L47.2551 18.8105L53.8499 9.86186L52.1962 18.7861H54.6944L57.1315 5.70567L58.1679 0.149191H58.1636Z" fill="#6D6E71"/>
<path d="M0.816872 22.2768H0.93977C1.09285 22.2768 1.20641 22.247 1.27972 22.1885C1.3523 22.13 1.40046 22.0321 1.42274 21.8937C1.44717 21.7416 1.43424 21.6352 1.38608 21.5745C1.33721 21.5128 1.23084 21.483 1.06842 21.483H0.945519L0.816872 22.2768ZM0.619947 23.4983H0.730627C0.842745 23.4983 0.927552 23.493 0.985767 23.4802C1.04326 23.4675 1.09142 23.4462 1.12951 23.4132C1.17479 23.377 1.2136 23.327 1.24522 23.2664C1.27684 23.2046 1.2984 23.1376 1.31062 23.0621C1.32428 22.9737 1.32356 22.8971 1.30846 22.8312C1.29265 22.7663 1.2639 22.7152 1.22078 22.679C1.19347 22.6567 1.16113 22.6418 1.12376 22.6311C1.08567 22.6215 1.03536 22.6162 0.969955 22.6162H0.87293H0.76225L0.619947 23.4983ZM0.243347 23.875L0.69038 21.1085H1.18988C1.33146 21.1085 1.43496 21.1191 1.49964 21.1414C1.56432 21.1617 1.61607 21.1978 1.65632 21.2468C1.70734 21.3096 1.74184 21.3926 1.75909 21.4947C1.77634 21.5958 1.7749 21.7097 1.7555 21.832C1.73034 21.9799 1.68722 22.1034 1.62254 22.2023C1.55713 22.3002 1.47592 22.3694 1.37674 22.4087C1.48814 22.4332 1.5672 22.5077 1.61319 22.629C1.65991 22.7503 1.66853 22.9035 1.63835 23.0887C1.62038 23.2004 1.58876 23.3079 1.54492 23.4068C1.50036 23.509 1.44717 23.5941 1.38393 23.6654C1.31781 23.742 1.24234 23.7963 1.15682 23.8282C1.07129 23.859 0.93402 23.875 0.745001 23.875H0.243347Z" fill="#414042"/>
<path d="M2.67462 23.875L3.12165 21.1085H3.44291L3.27833 22.1289H4.25074L4.41604 21.1085H4.73802L4.29098 23.875H3.969L4.18677 22.5311H3.21293L2.99588 23.875H2.67462Z" fill="#414042"/>
<path d="M6.17343 22.7876H6.72539L6.62478 22.1566C6.61903 22.1162 6.61471 22.0705 6.6104 22.0173C6.60681 21.9662 6.60321 21.9077 6.60106 21.8427C6.5795 21.9034 6.56009 21.9609 6.53925 22.0119C6.51841 22.0641 6.49828 22.113 6.47888 22.1566L6.17343 22.7876ZM6.8871 23.874L6.77858 23.1622H5.99447L5.6495 23.874H5.31171L6.73474 20.999L7.22705 23.874H6.8871Z" fill="#414042"/>
<path d="M8.82717 22.2874H8.88538C9.05571 22.2874 9.17286 22.2608 9.23826 22.2055C9.30295 22.1491 9.34679 22.0501 9.36979 21.9108C9.39422 21.7575 9.38128 21.6501 9.33169 21.5884C9.2821 21.5256 9.17574 21.4947 9.01403 21.4947H8.95581L8.82717 22.2874ZM8.75098 22.6375L8.55046 23.875H8.24933L8.69636 21.1095H9.14483C9.27635 21.1095 9.37697 21.1212 9.44525 21.1446C9.51424 21.1681 9.56958 21.2085 9.61199 21.2638C9.6623 21.3308 9.69608 21.4181 9.71189 21.5224C9.72842 21.6288 9.72626 21.7437 9.70614 21.8703C9.6702 22.0916 9.60336 22.2651 9.50634 22.3917C9.41003 22.5162 9.28498 22.5918 9.13118 22.6173L9.60911 23.875H9.24545L8.78692 22.6375H8.75098Z" fill="#414042"/>
<path d="M11.2282 22.7876H11.7801L11.6795 22.1566C11.6738 22.1162 11.6687 22.0705 11.6652 22.0173C11.6616 21.9662 11.658 21.9077 11.6558 21.8427C11.6342 21.9034 11.6141 21.9609 11.594 22.0119C11.5724 22.0641 11.5523 22.113 11.5336 22.1566L11.2282 22.7876ZM11.9419 23.874L11.8333 23.1622H11.0492L10.7042 23.874H10.3665L11.7895 20.999L12.2811 23.874H11.9419Z" fill="#414042"/>
<path d="M14.1774 21.4905L13.7915 23.875H13.4702L13.8554 21.4905H13.3293L13.3912 21.1095H14.7617L14.7006 21.4905H14.1774Z" fill="#414042"/>
<path d="M17.0732 23.875L17.5203 21.1085H17.8415L17.3945 23.875H17.0732Z" fill="#414042"/>
<path d="M18.6932 23.875L19.1575 20.9999L20.1414 22.6907C20.168 22.7385 20.1945 22.7886 20.2204 22.8428C20.247 22.8971 20.2736 22.9588 20.3016 23.0258L20.6114 21.1084H20.9089L20.4447 23.9824L19.4406 22.2608C19.4133 22.214 19.3889 22.1661 19.3652 22.1139C19.3407 22.0618 19.3192 22.0075 19.2998 21.9511L18.9886 23.875H18.6932Z" fill="#414042"/>
<path d="M22.7766 21.4905L22.3914 23.875H22.0701L22.4554 21.4905H21.9293L21.9911 21.1095H23.3609L23.3005 21.4905H22.7766Z" fill="#414042"/>
<path d="M23.9964 23.875L24.4434 21.1085H25.5474L25.4856 21.4905H24.7029L24.5908 22.1842H25.3734L25.3095 22.579H24.5268L24.3823 23.4728H25.165L25.1003 23.875H23.9964Z" fill="#414042"/>
<path d="M26.8831 22.2874H26.9413C27.1117 22.2874 27.2288 22.2608 27.2942 22.2055C27.3589 22.1491 27.4028 22.0501 27.4258 21.9108C27.4502 21.7575 27.4373 21.6501 27.3877 21.5884C27.3381 21.5256 27.2317 21.4947 27.07 21.4947H27.0118L26.8831 22.2874ZM26.807 22.6375L26.6064 23.875H26.3053L26.7523 21.1095H27.2008C27.3323 21.1095 27.4329 21.1212 27.5012 21.1446C27.5702 21.1681 27.6256 21.2085 27.668 21.2638C27.7183 21.3308 27.752 21.4181 27.7679 21.5224C27.7844 21.6288 27.7822 21.7437 27.7621 21.8703C27.7262 22.0916 27.6593 22.2651 27.5623 22.3917C27.466 22.5162 27.3409 22.5918 27.1871 22.6173L27.6651 23.875H27.3014L26.8429 22.6375H26.807Z" fill="#414042"/>
<path d="M28.6912 23.875L29.1382 21.1085H30.2421L30.1803 21.4905H29.3976L29.287 22.18H30.0696L30.0057 22.5747H29.223L29.0124 23.875H28.6912Z" fill="#414042"/>
<path d="M31.4747 22.7876H32.0259L31.9253 22.1566C31.9196 22.1162 31.9153 22.0705 31.9109 22.0173C31.9073 21.9662 31.9038 21.9077 31.9016 21.8427C31.8808 21.9034 31.8606 21.9609 31.8398 22.0119C31.8189 22.0641 31.7988 22.113 31.7794 22.1566L31.4747 22.7876ZM32.1884 23.874L32.0791 23.1622H31.295L30.9508 23.874H30.6122L32.0353 20.999L32.5276 23.874H32.1884Z" fill="#414042"/>
<path d="M35.4275 21.7808C35.3535 21.6722 35.2709 21.5914 35.1781 21.5371C35.0854 21.4839 34.9841 21.4552 34.8727 21.4552C34.6564 21.4552 34.4638 21.5531 34.297 21.7478C34.1303 21.9404 34.0218 22.1926 33.9722 22.5011C33.9233 22.7991 33.9499 23.0449 34.0505 23.2396C34.1511 23.4343 34.302 23.5311 34.5033 23.5311C34.6197 23.5311 34.7361 23.5013 34.8511 23.4428C34.9661 23.3854 35.0826 23.2981 35.199 23.18L35.1163 23.6897C35.0157 23.7759 34.9108 23.8418 34.8023 23.8844C34.6937 23.927 34.5795 23.9482 34.4609 23.9482C34.3092 23.9482 34.1756 23.9131 34.0584 23.844C33.9413 23.7748 33.8449 23.6727 33.7688 23.5375C33.694 23.4056 33.6459 23.2502 33.6222 23.0704C33.5999 22.8916 33.6049 22.699 33.6372 22.4969C33.6703 22.2936 33.7271 22.1042 33.8076 21.9255C33.8881 21.7478 33.9887 21.5903 34.1087 21.4552C34.2287 21.32 34.3581 21.2179 34.4961 21.1466C34.6341 21.0774 34.7778 21.0423 34.9259 21.0423C35.0416 21.0423 35.1487 21.0657 35.2464 21.1136C35.3442 21.1604 35.4347 21.2317 35.5188 21.3275L35.4275 21.7808Z" fill="#414042"/>
<path d="M36.3239 23.875L36.7709 21.1085H37.8748L37.813 21.4905H37.0303L36.9189 22.1842H37.7016L37.6376 22.579H36.855L36.7105 23.4728H37.4932L37.4278 23.875H36.3239Z" fill="#414042"/>
<path d="M40.3041 23.875L40.7511 21.1085H41.855L41.7932 21.4905H41.0106L40.8992 22.18H41.6818L41.6179 22.5747H40.8352L40.6253 23.875H40.3041Z" fill="#414042"/>
<path d="M44.5082 22.4969C44.5312 22.3575 44.5341 22.2245 44.5183 22.0989C44.5018 21.9734 44.468 21.8606 44.4155 21.7627C44.3645 21.6658 44.2991 21.5903 44.22 21.5392C44.1403 21.4871 44.0519 21.4594 43.9541 21.4594C43.8578 21.4594 43.7608 21.486 43.6645 21.5382C43.5682 21.5892 43.4776 21.6637 43.3935 21.7627C43.3094 21.8584 43.239 21.9712 43.1822 22.0968C43.1262 22.2223 43.0866 22.3564 43.0636 22.4969C43.0414 22.6373 43.0378 22.7693 43.0543 22.8938C43.0701 23.0183 43.1039 23.13 43.1563 23.2279C43.2088 23.3258 43.2749 23.4024 43.354 23.4524C43.433 23.5045 43.5215 23.5311 43.6199 23.5311C43.7162 23.5311 43.8118 23.5045 43.9074 23.4524C44.003 23.4024 44.0928 23.3258 44.1783 23.2279C44.2624 23.13 44.3336 23.0183 44.3896 22.8927C44.4464 22.7682 44.4867 22.6363 44.5082 22.4969ZM44.8439 22.4969C44.8122 22.6937 44.7562 22.8789 44.6742 23.0544C44.5938 23.2289 44.4917 23.3854 44.3688 23.5226C44.2445 23.6609 44.1122 23.7652 43.9728 23.8386C43.8334 23.911 43.6925 23.9482 43.5524 23.9482C43.4101 23.9482 43.28 23.911 43.1628 23.8376C43.0457 23.7631 42.9479 23.6588 42.871 23.5226C42.792 23.3854 42.7409 23.23 42.7165 23.0566C42.6928 22.8821 42.6964 22.6959 42.7287 22.4969C42.7603 22.299 42.8164 22.1138 42.8976 21.9382C42.9781 21.7627 43.0802 21.6063 43.2038 21.4669C43.326 21.3296 43.4575 21.2264 43.5969 21.154C43.7371 21.0817 43.8779 21.0466 44.0209 21.0466C44.164 21.0466 44.2926 21.0817 44.409 21.154C44.5248 21.2264 44.6218 21.3296 44.7008 21.4669C44.7792 21.6073 44.8302 21.7659 44.8546 21.9414C44.8791 22.117 44.8755 22.3011 44.8439 22.4969Z" fill="#414042"/>
<path d="M46.4045 22.2874H46.4628C46.6324 22.2874 46.7502 22.2608 46.8149 22.2055C46.8796 22.1491 46.9242 22.0501 46.9464 21.9108C46.9709 21.7575 46.9587 21.6501 46.9084 21.5884C46.8588 21.5256 46.7524 21.4947 46.5907 21.4947H46.5325L46.4045 22.2874ZM46.3276 22.6375L46.1271 23.875H45.826L46.273 21.1095H46.7215C46.853 21.1095 46.9536 21.1212 47.0219 21.1446C47.0909 21.1681 47.1462 21.2085 47.1894 21.2638C47.239 21.3308 47.2727 21.4181 47.2885 21.5224C47.3051 21.6288 47.3029 21.7437 47.2828 21.8703C47.2469 22.0916 47.18 22.2651 47.0837 22.3917C46.9874 22.5162 46.8616 22.5918 46.7078 22.6173L47.1858 23.875H46.8221L46.3636 22.6375H46.3276Z" fill="#414042"/>
<path d="M51.7177 22.5084C51.7177 22.4871 51.7213 22.4286 51.7292 22.3307C51.7342 22.2509 51.7393 22.1838 51.7421 22.1306C51.7242 22.1934 51.7026 22.2572 51.6775 22.319C51.6523 22.3828 51.6235 22.4466 51.5898 22.5126L50.8344 23.9863L50.5599 22.4828C50.5477 22.42 50.539 22.3605 50.5333 22.303C50.5268 22.2445 50.5218 22.187 50.5189 22.1306C50.5088 22.1881 50.4959 22.2498 50.4794 22.3126C50.4636 22.3764 50.4442 22.4424 50.4212 22.5126L49.9892 23.8746H49.6931L50.626 20.991L50.9278 22.7371C50.9322 22.7648 50.9386 22.8105 50.9473 22.8755C50.9544 22.9393 50.9645 23.018 50.9753 23.1127C51.0076 23.034 51.0529 22.9329 51.1133 22.8105C51.1298 22.7786 51.1413 22.7531 51.1499 22.735L52.0023 20.991L52.0145 23.8746H51.7163L51.7177 22.5084Z" fill="#414042"/>
<path d="M55.0234 22.4969C55.0457 22.3575 55.0493 22.2245 55.0335 22.0989C55.0169 21.9734 54.9825 21.8606 54.93 21.7627C54.879 21.6658 54.8136 21.5903 54.7345 21.5392C54.6547 21.4871 54.5663 21.4594 54.4693 21.4594C54.3723 21.4594 54.2752 21.486 54.1789 21.5382C54.0826 21.5892 53.9921 21.6637 53.908 21.7627C53.8239 21.8584 53.7535 21.9712 53.6974 22.0968C53.6406 22.2223 53.6011 22.3564 53.5781 22.4969C53.5558 22.6373 53.5522 22.7693 53.5688 22.8938C53.5846 23.0183 53.6184 23.13 53.6715 23.2279C53.7233 23.3258 53.7894 23.4024 53.8692 23.4524C53.9475 23.5045 54.0366 23.5311 54.1351 23.5311C54.2307 23.5311 54.3263 23.5045 54.4219 23.4524C54.5175 23.4024 54.6073 23.3258 54.6928 23.2279C54.7769 23.13 54.8481 23.0183 54.9048 22.8927C54.9616 22.7682 55.0011 22.6363 55.0234 22.4969ZM55.3583 22.4969C55.3267 22.6937 55.2707 22.8789 55.1887 23.0544C55.1082 23.2289 55.0069 23.3854 54.8833 23.5226C54.7597 23.6609 54.6274 23.7652 54.4873 23.8386C54.3478 23.911 54.2077 23.9482 54.0668 23.9482C53.9245 23.9482 53.7944 23.911 53.6773 23.8376C53.5601 23.7631 53.4624 23.6588 53.3862 23.5226C53.3064 23.3854 53.2554 23.23 53.2317 23.0566C53.2073 22.8821 53.2116 22.6959 53.2432 22.4969C53.2748 22.299 53.3316 22.1138 53.4121 21.9382C53.4926 21.7627 53.5946 21.6063 53.7183 21.4669C53.8404 21.3296 53.9727 21.2264 54.1121 21.154C54.2515 21.0817 54.3931 21.0466 54.5361 21.0466C54.6792 21.0466 54.8078 21.0817 54.9235 21.154C55.0392 21.2264 55.137 21.3296 55.216 21.4669C55.2936 21.6073 55.3447 21.7659 55.3691 21.9414C55.3943 22.117 55.39 22.3011 55.3583 22.4969Z" fill="#414042"/>
<path d="M56.3408 23.875L56.8051 20.9999L57.7897 22.6907C57.8156 22.7385 57.8422 22.7886 57.8688 22.8428C57.8947 22.8971 57.922 22.9588 57.9493 23.0258L58.2598 21.1084H58.5566L58.093 23.9824L57.0883 22.2608C57.061 22.214 57.0365 22.1661 57.0128 22.1139C56.9884 22.0618 56.9675 22.0075 56.9474 21.9511L56.6362 23.875H56.3408Z" fill="#414042"/>
<path d="M59.4003 23.875L59.8473 21.1085H60.9512L60.8894 21.4905H60.1068L59.9946 22.1842H60.7773L60.7133 22.579H59.9307L59.7862 23.4728H60.5689L60.5042 23.875H59.4003Z" fill="#414042"/>
<path d="M62.1347 23.875L62.3395 22.6088L61.9155 21.1085H62.2533L62.5163 22.047C62.5221 22.0725 62.53 22.1034 62.5386 22.1417C62.5465 22.181 62.5551 22.2236 62.5637 22.2683C62.5824 22.2247 62.6025 22.1832 62.6234 22.1438C62.6435 22.1055 62.6636 22.0704 62.6845 22.0353L63.2602 21.1085H63.5821L62.6586 22.6088L62.4531 23.875H62.1347Z" fill="#414042"/>
</g>
<defs>
<clipPath id="clip0_755_8991">
<rect width="66" height="24" fill="white"/>
</clipPath>
</defs>
</svg>
