<svg width="324" height="66" viewBox="0 0 324 66" fill="none" xmlns="http://www.w3.org/2000/svg">
<g clip-path="url(#clip0_360_698)">
<path d="M97.3474 49.9911V16.3972H103.567V44.2322H118.645V49.9911H97.3474Z" fill="white"/>
<path d="M132.074 50.663C129.749 50.663 127.66 50.1831 125.807 49.2232C123.953 48.2635 122.493 46.8717 121.425 45.0481C120.357 43.2244 119.823 41.0328 119.823 38.4733V37.7054C119.823 35.1458 120.357 32.9542 121.425 31.1305C122.493 29.3069 123.953 27.9151 125.807 26.9552C127.66 25.9955 129.749 25.5156 132.074 25.5156C134.398 25.5156 136.487 25.9955 138.34 26.9552C140.194 27.9151 141.654 29.3069 142.722 31.1305C143.79 32.9542 144.324 35.1458 144.324 37.7054V38.4733C144.324 41.0328 143.79 43.2244 142.722 45.0481C141.654 46.8717 140.194 48.2635 138.34 49.2232C136.487 50.1831 134.398 50.663 132.074 50.663ZM132.074 45.288C133.895 45.288 135.403 44.696 136.597 43.5124C137.791 42.2965 138.387 40.5688 138.387 38.3293V37.8493C138.387 35.6097 137.791 33.898 136.597 32.7141C135.435 31.4985 133.927 30.8905 132.074 30.8905C130.252 30.8905 128.744 31.4985 127.55 32.7141C126.356 33.898 125.76 35.6097 125.76 37.8493V38.3293C125.76 40.5688 126.356 42.2965 127.55 43.5124C128.744 44.696 130.252 45.288 132.074 45.288Z" fill="white"/>
<path d="M146.553 38.1853V37.4175C146.553 34.9218 147.04 32.7942 148.014 31.0344C148.988 29.2429 150.276 27.8831 151.878 26.9552C153.511 25.9955 155.286 25.5156 157.202 25.5156C159.338 25.5156 160.956 25.8994 162.055 26.6673C163.155 27.4352 163.956 28.235 164.458 29.0668H165.307V26.1874H171.149V54.2143C171.149 55.8461 170.678 57.1418 169.736 58.1017C168.793 59.0935 167.537 59.5893 165.966 59.5893H150.323V54.3104H163.893C164.773 54.3104 165.212 53.8304 165.212 52.8705V46.6797H164.364C164.05 47.1916 163.61 47.7194 163.045 48.2635C162.48 48.7752 161.726 49.2073 160.783 49.5592C159.841 49.9111 158.647 50.0872 157.202 50.0872C155.286 50.0872 153.511 49.6231 151.878 48.6954C150.276 47.7355 148.988 46.3757 148.014 44.616C147.04 42.8245 146.553 40.6807 146.553 38.1853ZM158.899 44.808C160.72 44.808 162.244 44.2161 163.469 43.0324C164.694 41.8485 165.307 40.1849 165.307 38.0414V37.5614C165.307 35.3857 164.694 33.7221 163.469 32.5702C162.275 31.3865 160.752 30.7946 158.899 30.7946C157.076 30.7946 155.553 31.3865 154.328 32.5702C153.103 33.7221 152.49 35.3857 152.49 37.5614V38.0414C152.49 40.1849 153.103 41.8485 154.328 43.0324C155.553 44.2161 157.076 44.808 158.899 44.808Z" fill="white"/>
<path d="M186.731 50.663C184.407 50.663 182.318 50.1831 180.464 49.2232C178.611 48.2635 177.15 46.8717 176.082 45.0481C175.014 43.2244 174.48 41.0328 174.48 38.4733V37.7054C174.48 35.1458 175.014 32.9542 176.082 31.1305C177.15 29.3069 178.611 27.9151 180.464 26.9552C182.318 25.9955 184.407 25.5156 186.731 25.5156C189.056 25.5156 191.145 25.9955 192.998 26.9552C194.851 27.9151 196.312 29.3069 197.38 31.1305C198.448 32.9542 198.982 35.1458 198.982 37.7054V38.4733C198.982 41.0328 198.448 43.2244 197.38 45.0481C196.312 46.8717 194.851 48.2635 192.998 49.2232C191.145 50.1831 189.056 50.663 186.731 50.663ZM186.731 45.288C188.553 45.288 190.061 44.696 191.255 43.5124C192.448 42.2965 193.045 40.5688 193.045 38.3293V37.8493C193.045 35.6097 192.448 33.898 191.255 32.7141C190.092 31.4985 188.585 30.8905 186.731 30.8905C184.909 30.8905 183.402 31.4985 182.208 32.7141C181.014 33.898 180.417 35.6097 180.417 37.8493V38.3293C180.417 40.5688 181.014 42.2965 182.208 43.5124C183.402 44.696 184.909 45.288 186.731 45.288Z" fill="white"/>
<path d="M202.342 49.9911V26.1874H208.279V49.9911H202.342ZM205.311 23.404C204.241 23.404 203.332 23.0519 202.577 22.348C201.855 21.6443 201.494 20.7164 201.494 19.5646C201.494 18.4128 201.855 17.485 202.577 16.7811C203.332 16.0773 204.241 15.7253 205.311 15.7253C206.41 15.7253 207.322 16.0773 208.042 16.7811C208.765 17.485 209.128 18.4128 209.128 19.5646C209.128 20.7164 208.765 21.6443 208.042 22.348C207.322 23.0519 206.41 23.404 205.311 23.404Z" fill="white"/>
<path d="M212.738 59.5893V26.1874H218.581V29.0668H219.429C219.962 28.1391 220.794 27.3232 221.926 26.6192C223.056 25.8835 224.674 25.5156 226.78 25.5156C228.663 25.5156 230.407 25.9955 232.008 26.9552C233.612 27.8831 234.9 29.2588 235.872 31.0825C236.846 32.9062 237.334 35.1139 237.334 37.7054V38.4733C237.334 41.0648 236.846 43.2723 235.872 45.0959C234.9 46.9196 233.612 48.3114 232.008 49.2713C230.407 50.199 228.663 50.663 226.78 50.663C225.366 50.663 224.172 50.4871 223.198 50.135C222.256 49.8151 221.486 49.3991 220.889 48.8872C220.324 48.3433 219.868 47.7995 219.522 47.2556H218.674V59.5893H212.738ZM224.988 45.3839C226.843 45.3839 228.365 44.7921 229.558 43.6083C230.783 42.3924 231.397 40.6329 231.397 38.3293V37.8493C231.397 35.5457 230.783 33.8021 229.558 32.6182C228.333 31.4024 226.81 30.7946 224.988 30.7946C223.167 30.7946 221.642 31.4024 220.417 32.6182C219.192 33.8021 218.581 35.5457 218.581 37.8493V38.3293C218.581 40.6329 219.192 42.3924 220.417 43.6083C221.642 44.7921 223.167 45.3839 224.988 45.3839Z" fill="white"/>
<path d="M250.371 50.663C247.323 50.663 244.827 49.9911 242.879 48.6474C240.932 47.3036 239.754 45.3839 239.345 42.8884L244.81 41.4486C245.031 42.5686 245.392 43.4482 245.896 44.0882C246.428 44.728 247.072 45.1921 247.828 45.48C248.611 45.7359 249.46 45.8638 250.371 45.8638C251.754 45.8638 252.775 45.6239 253.433 45.144C254.093 44.6321 254.423 44.0082 254.423 43.2723C254.423 42.5364 254.109 41.9766 253.481 41.5926C252.852 41.1768 251.847 40.8408 250.466 40.5848L249.146 40.3448C247.512 40.0249 246.021 39.593 244.671 39.0491C243.318 38.4733 242.235 37.6893 241.418 36.6974C240.602 35.7058 240.193 34.426 240.193 32.8583C240.193 30.4906 241.042 28.683 242.739 27.4352C244.434 26.1554 246.665 25.5156 249.429 25.5156C252.036 25.5156 254.204 26.1073 255.932 27.2912C257.659 28.4751 258.789 30.0267 259.324 31.9465L253.811 33.674C253.56 32.4584 253.042 31.5944 252.256 31.0825C251.501 30.5706 250.559 30.3146 249.429 30.3146C248.297 30.3146 247.435 30.5227 246.837 30.9385C246.24 31.3226 245.942 31.8664 245.942 32.5702C245.942 33.338 246.256 33.9141 246.884 34.2979C247.512 34.6498 248.36 34.9218 249.429 35.1139L250.748 35.3537C252.507 35.6736 254.093 36.1057 255.506 36.6496C256.952 37.1615 258.082 37.9133 258.9 38.9051C259.747 39.865 260.172 41.1768 260.172 42.8404C260.172 45.336 259.277 47.2717 257.487 48.6474C255.727 49.9911 253.356 50.663 250.371 50.663Z" fill="white"/>
<path d="M272.16 50.3751C270.338 50.3751 268.736 49.9591 267.353 49.1273C266.002 48.2635 264.951 47.0796 264.196 45.5759C263.442 44.0721 263.066 42.3446 263.066 40.3928V26.1873H269.003V39.9129C269.003 41.7046 269.426 43.0483 270.275 43.9442C271.154 44.84 272.395 45.288 273.997 45.288C275.819 45.288 277.233 44.6801 278.237 43.4643C279.243 42.2165 279.746 40.4887 279.746 38.2812V26.1873H285.683V49.9911H279.839V46.8717H278.992C278.616 47.6716 277.907 48.4553 276.872 49.2232C275.835 49.9911 274.264 50.3751 272.16 50.3751Z" fill="white"/>
<path d="M290.168 49.9911V26.1874H296.01V28.7789H296.859C297.268 27.9791 297.944 27.2912 298.886 26.7154C299.828 26.1073 301.069 25.8035 302.608 25.8035C304.272 25.8035 305.609 26.1395 306.613 26.8113C307.618 27.4513 308.387 28.2989 308.922 29.3549H309.77C310.305 28.3311 311.058 27.4832 312.032 26.8113C313.006 26.1395 314.387 25.8035 316.177 25.8035C317.623 25.8035 318.927 26.1234 320.09 26.7634C321.282 27.3712 322.226 28.315 322.917 29.5948C323.64 30.8426 324 32.4262 324 34.346V49.9911H318.063V34.7779C318.063 33.4661 317.733 32.4904 317.075 31.8504C316.414 31.1786 315.487 30.8426 314.294 30.8426C312.944 30.8426 311.891 31.2904 311.137 32.1863C310.414 33.0501 310.054 34.2979 310.054 35.9296V49.9911H304.117V34.7779C304.117 33.4661 303.786 32.4904 303.126 31.8504C302.466 31.1786 301.541 30.8426 300.346 30.8426C298.995 30.8426 297.942 31.2904 297.189 32.1863C296.466 33.0501 296.106 34.2979 296.106 35.9296V49.9911H290.168Z" fill="white"/>
<path d="M78.5313 31.9949C78.5313 23.5094 75.2217 15.3713 69.3305 9.37109C63.4394 3.37089 55.4494 1.11275e-06 47.1181 0C38.7868 -1.11275e-06 30.7968 3.37089 24.9057 9.37109C19.0145 15.3713 15.7049 23.5094 15.7049 31.9949H25.5217C28.7746 31.9949 31.3116 29.2184 32.5031 26.1354C33.2853 24.1112 34.4724 22.2511 36.0118 20.683C38.9574 17.6829 42.9525 15.9975 47.1181 15.9975C51.2837 15.9975 55.2789 17.6829 58.2244 20.683C61.17 23.6831 62.8246 27.7522 62.8246 31.9949H78.5313Z" fill="white"/>
<path d="M60.4351 44.2388C62.0138 40.3569 62.8264 36.1965 62.8264 31.9949H78.5313C78.5313 49.6652 64.4671 63.9897 47.1181 63.9897C44.4012 63.9897 41.7646 63.6384 39.2504 62.978C40.6729 62.6047 42.0712 62.1293 43.4344 61.5543C47.2457 59.9463 50.7086 57.5897 53.6256 54.6187C56.5427 51.6477 58.8566 48.1206 60.4351 44.2388Z" fill="#FBCF8E"/>
<path d="M0 31.9948C-5.90152e-07 36.1965 0.812525 40.357 2.39118 44.2388C3.96985 48.1206 6.28372 51.6477 9.20071 54.6187C12.1177 57.5895 15.5807 59.9464 19.3919 61.5543C23.2031 63.1622 27.2879 63.9897 31.4132 63.9897C35.5383 63.9897 39.6232 63.1622 43.4344 61.5543C47.2457 59.9464 50.7086 57.5895 53.6256 54.6187C56.5427 51.6477 58.8564 48.1206 60.4351 44.2388C62.0138 40.357 62.8264 36.1965 62.8264 31.9948H53.0096C49.7567 31.9948 47.2198 34.7713 46.0283 37.8541C45.9944 37.942 45.9596 38.0294 45.9242 38.1169C45.1348 40.0577 43.9779 41.8213 42.5193 43.3067C41.0609 44.7921 39.3293 45.9707 37.4238 46.7746C35.5183 47.5786 33.4759 47.9923 31.4132 47.9923C29.3506 47.9923 27.3081 47.5786 25.4026 46.7746C23.4969 45.9707 21.7655 44.7921 20.3069 43.3067C18.8484 41.8213 17.6915 40.0577 16.9022 38.1169C16.1128 36.1759 15.7066 34.0956 15.7066 31.9948H0Z" fill="url(#paint0_linear_360_698)"/>
<path d="M0.00442505 31.9949C0.00442505 14.3246 14.0685 0 31.4175 0C34.1338 0 36.7695 0.351132 39.2836 1.01129C33.8892 2.42668 28.9129 5.29103 24.9069 9.37111C19.0158 15.3713 15.7062 23.5094 15.7062 31.9949H0.00442505Z" fill="white"/>
</g>
<defs>
<linearGradient id="paint0_linear_360_698" x1="2.05967e-06" y1="47.9923" x2="62.8264" y2="47.9923" gradientUnits="userSpaceOnUse">
<stop stop-color="#FBDC8E"/>
<stop offset="1" stop-color="#FB958E"/>
</linearGradient>
<clipPath id="clip0_360_698">
<rect width="324" height="66" fill="white"/>
</clipPath>
</defs>
</svg>
