<svg width="103" height="22" viewBox="0 0 103 22" fill="none" xmlns="http://www.w3.org/2000/svg">
<g clip-path="url(#clip0_394_285)">
<path d="M30.9453 16.4063V5.71729H32.9225V14.5739H37.7158V16.4063H30.9453Z" fill="#754F23"/>
<path d="M41.9844 16.6201C41.2454 16.6201 40.5814 16.4674 39.9922 16.162C39.403 15.8566 38.9386 15.4138 38.5991 14.8335C38.2596 14.2533 38.0898 13.5559 38.0898 12.7415V12.4972C38.0898 11.6828 38.2596 10.9855 38.5991 10.4052C38.9386 9.82497 39.403 9.38213 39.9922 9.07671C40.5814 8.77136 41.2454 8.61865 41.9844 8.61865C42.7234 8.61865 43.3875 8.77136 43.9766 9.07671C44.5658 9.38213 45.0301 9.82497 45.3697 10.4052C45.7092 10.9855 45.879 11.6828 45.879 12.4972V12.7415C45.879 13.5559 45.7092 14.2533 45.3697 14.8335C45.0301 15.4138 44.5658 15.8566 43.9766 16.162C43.3875 16.4674 42.7234 16.6201 41.9844 16.6201ZM41.9844 14.9099C42.5636 14.9099 43.0429 14.7215 43.4224 14.3449C43.8018 13.958 43.9916 13.4083 43.9916 12.6957V12.543C43.9916 11.8304 43.8018 11.2858 43.4224 10.9091C43.0529 10.5223 42.5736 10.3288 41.9844 10.3288C41.4052 10.3288 40.9259 10.5223 40.5464 10.9091C40.1669 11.2858 39.9772 11.8304 39.9772 12.543V12.6957C39.9772 13.4083 40.1669 13.958 40.5464 14.3449C40.9259 14.7215 41.4052 14.9099 41.9844 14.9099Z" fill="#754F23"/>
<path d="M46.5898 12.6499V12.4056C46.5898 11.6115 46.7446 10.9346 47.0542 10.3746C47.3638 9.80463 47.7732 9.37196 48.2825 9.07671C48.8018 8.77136 49.3659 8.61865 49.9751 8.61865C50.6542 8.61865 51.1684 8.74078 51.5179 8.9851C51.8675 9.22942 52.1221 9.48392 52.2819 9.74858H52.5515V8.83239H54.409V17.75C54.409 18.2693 54.2592 18.6815 53.9596 18.9869C53.66 19.3025 53.2606 19.4603 52.7612 19.4603H47.7882V17.7806H52.1021C52.3818 17.7806 52.5216 17.6279 52.5216 17.3225V15.3527H52.2519C52.1521 15.5156 52.0123 15.6835 51.8325 15.8566C51.6528 16.0194 51.4131 16.1569 51.1135 16.2689C50.8139 16.3808 50.4345 16.4369 49.9751 16.4369C49.3659 16.4369 48.8018 16.2892 48.2825 15.994C47.7732 15.6886 47.3638 15.256 47.0542 14.6961C46.7446 14.126 46.5898 13.4439 46.5898 12.6499ZM50.5144 14.7571C51.0936 14.7571 51.5779 14.5688 51.9673 14.1922C52.3568 13.8155 52.5515 13.2862 52.5515 12.6041V12.4514C52.5515 11.7591 52.3568 11.2298 51.9673 10.8633C51.5879 10.4867 51.1036 10.2983 50.5144 10.2983C49.9352 10.2983 49.4509 10.4867 49.0614 10.8633C48.6719 11.2298 48.4772 11.7591 48.4772 12.4514V12.6041C48.4772 13.2862 48.6719 13.8155 49.0614 14.1922C49.4509 14.5688 49.9352 14.7571 50.5144 14.7571Z" fill="#754F23"/>
<path d="M59.3634 16.6201C58.6244 16.6201 57.9603 16.4674 57.3711 16.162C56.7819 15.8566 56.3176 15.4138 55.9781 14.8335C55.6386 14.2533 55.4688 13.5559 55.4688 12.7415V12.4972C55.4688 11.6828 55.6386 10.9855 55.9781 10.4052C56.3176 9.82497 56.7819 9.38213 57.3711 9.07671C57.9603 8.77136 58.6244 8.61865 59.3634 8.61865C60.1023 8.61865 60.7664 8.77136 61.3556 9.07671C61.9447 9.38213 62.4091 9.82497 62.7487 10.4052C63.0882 10.9855 63.2579 11.6828 63.2579 12.4972V12.7415C63.2579 13.5559 63.0882 14.2533 62.7487 14.8335C62.4091 15.4138 61.9447 15.8566 61.3556 16.162C60.7664 16.4674 60.1023 16.6201 59.3634 16.6201ZM59.3634 14.9099C59.9426 14.9099 60.4219 14.7215 60.8013 14.3449C61.1808 13.958 61.3705 13.4083 61.3705 12.6957V12.543C61.3705 11.8304 61.1808 11.2858 60.8013 10.9091C60.4319 10.5223 59.9525 10.3288 59.3634 10.3288C58.7841 10.3288 58.3049 10.5223 57.9254 10.9091C57.5459 11.2858 57.3562 11.8304 57.3562 12.543V12.6957C57.3562 13.4083 57.5459 13.958 57.9254 14.3449C58.3049 14.7215 58.7841 14.9099 59.3634 14.9099Z" fill="#754F23"/>
<path d="M64.3243 16.4062V8.83225H66.2118V16.4062H64.3243ZM65.2681 7.94664C64.9282 7.94664 64.6392 7.83462 64.399 7.61064C64.1695 7.38673 64.0547 7.09148 64.0547 6.72501C64.0547 6.35854 64.1695 6.06332 64.399 5.83936C64.6392 5.6154 64.9282 5.50342 65.2681 5.50342C65.6176 5.50342 65.9073 5.6154 66.1365 5.83936C66.3663 6.06332 66.4816 6.35854 66.4816 6.72501C66.4816 7.09148 66.3663 7.38673 66.1365 7.61064C65.9073 7.83462 65.6176 7.94664 65.2681 7.94664Z" fill="#754F23"/>
<path d="M67.6289 19.4603V8.83239H69.4861V9.74858H69.7559C69.9252 9.4534 70.1897 9.19379 70.5496 8.96981C70.9088 8.73573 71.4232 8.61865 72.0927 8.61865C72.6914 8.61865 73.2456 8.77136 73.7548 9.07671C74.2647 9.37196 74.6741 9.80968 74.9831 10.3899C75.2928 10.9702 75.4479 11.6726 75.4479 12.4972V12.7415C75.4479 13.5661 75.2928 14.2685 74.9831 14.8488C74.6741 15.429 74.2647 15.8719 73.7548 16.1773C73.2456 16.4725 72.6914 16.6201 72.0927 16.6201C71.6433 16.6201 71.2635 16.5641 70.9539 16.4521C70.6545 16.3503 70.4099 16.218 70.22 16.0551C70.0404 15.882 69.8955 15.709 69.7855 15.5359H69.5157V19.4603H67.6289ZM71.523 14.9404C72.1126 14.9404 72.5967 14.7521 72.9759 14.3754C73.3654 13.9885 73.5604 13.4287 73.5604 12.6957V12.543C73.5604 11.8101 73.3654 11.2553 72.9759 10.8786C72.5864 10.4917 72.1023 10.2983 71.523 10.2983C70.9442 10.2983 70.4595 10.4917 70.07 10.8786C69.6805 11.2553 69.4861 11.8101 69.4861 12.543V12.6957C69.4861 13.4287 69.6805 13.9885 70.07 14.3754C70.4595 14.7521 70.9442 14.9404 71.523 14.9404Z" fill="#754F23"/>
<path d="M79.5951 16.6201C78.6262 16.6201 77.8325 16.4063 77.2132 15.9788C76.5945 15.5512 76.2199 14.9404 76.0898 14.1464L77.8273 13.6882C77.8975 14.0446 78.0121 14.3245 78.1724 14.5281C78.3417 14.7317 78.5464 14.8793 78.7865 14.971C79.0356 15.0524 79.3054 15.0931 79.5951 15.0931C80.0347 15.0931 80.3592 15.0168 80.5684 14.8641C80.7783 14.7012 80.8832 14.5027 80.8832 14.2685C80.8832 14.0344 80.7834 13.8562 80.5839 13.7341C80.3837 13.6018 80.0644 13.4949 79.6253 13.4134L79.2056 13.337C78.6861 13.2352 78.2123 13.0978 77.7829 12.9248C77.3529 12.7415 77.0085 12.4921 76.749 12.1765C76.4896 11.861 76.3596 11.4538 76.3596 10.955C76.3596 10.2016 76.6293 9.62646 77.1688 9.22942C77.7076 8.82222 78.417 8.61865 79.2957 8.61865C80.1242 8.61865 80.8137 8.80693 81.3628 9.18362C81.9119 9.56031 82.2711 10.054 82.4411 10.6648L80.6888 11.2145C80.609 10.8277 80.4442 10.5528 80.1944 10.3899C79.9543 10.2271 79.6549 10.1456 79.2957 10.1456C78.9359 10.1456 78.6616 10.2118 78.4717 10.3441C78.2818 10.4663 78.1872 10.6394 78.1872 10.8633C78.1872 11.1076 78.287 11.2909 78.4865 11.413C78.6861 11.525 78.9558 11.6115 79.2957 11.6726L79.7148 11.749C80.2742 11.8507 80.7783 11.9882 81.2276 12.1613C81.6873 12.3242 82.0465 12.5634 82.3065 12.879C82.5756 13.1844 82.7108 13.6018 82.7108 14.1311C82.7108 14.9251 82.4263 15.541 81.8572 15.9788C81.2978 16.4063 80.5439 16.6201 79.5951 16.6201Z" fill="#754F23"/>
<path d="M86.52 16.5286C85.9406 16.5286 85.4314 16.3963 84.9917 16.1316C84.5623 15.8568 84.2282 15.4801 83.9881 15.0016C83.7486 14.5231 83.6289 13.9735 83.6289 13.3524V8.83252H85.5164V13.1997C85.5164 13.7698 85.6509 14.1974 85.9207 14.4824C86.2 14.7674 86.5947 14.91 87.1039 14.91C87.6833 14.91 88.1326 14.7166 88.4519 14.3297C88.7718 13.9327 88.9315 13.383 88.9315 12.6806V8.83252H90.819V16.4064H88.9611V15.4139H88.692C88.5723 15.6684 88.347 15.9178 88.018 16.1621C87.6884 16.4064 87.1888 16.5286 86.52 16.5286Z" fill="#754F23"/>
<path d="M92.2461 16.4065V8.83258H94.1033V9.65716H94.373C94.5031 9.40266 94.7181 9.1838 95.0174 9.00058C95.3168 8.80711 95.7114 8.71045 96.2007 8.71045C96.7298 8.71045 97.1547 8.81735 97.474 9.03109C97.7933 9.23473 98.0379 9.50445 98.2079 9.84045H98.4776C98.6475 9.51468 98.887 9.2449 99.1967 9.03109C99.5063 8.81735 99.9453 8.71045 100.514 8.71045C100.974 8.71045 101.389 8.81223 101.758 9.01587C102.137 9.20926 102.437 9.50956 102.657 9.91677C102.887 10.3138 103.001 10.8177 103.001 11.4285V16.4065H101.114V11.5659C101.114 11.1485 101.009 10.8381 100.8 10.6344C100.59 10.4207 100.295 10.3138 99.9157 10.3138C99.4864 10.3138 99.1516 10.4563 98.9121 10.7413C98.6823 11.0162 98.5677 11.4132 98.5677 11.9324V16.4065H96.6802V11.5659C96.6802 11.1485 96.5753 10.8381 96.3655 10.6344C96.1556 10.4207 95.8614 10.3138 95.4816 10.3138C95.0522 10.3138 94.7174 10.4563 94.478 10.7413C94.2482 11.0162 94.1336 11.4132 94.1336 11.9324V16.4065H92.2461Z" fill="#754F23"/>
<path d="M24.9648 10.6802C24.9648 7.98027 23.9126 5.39087 22.0398 3.48171C20.167 1.57256 17.627 0.5 14.9785 0.5C12.33 0.5 9.78991 1.57256 7.91712 3.48171C6.04431 5.39087 4.99219 7.98027 4.99219 10.6802H8.11295C9.14707 10.6802 9.95356 9.79677 10.3323 8.8158C10.581 8.17176 10.9584 7.57989 11.4478 7.08094C12.3842 6.12637 13.6542 5.5901 14.9785 5.5901C16.3027 5.5901 17.5728 6.12637 18.5092 7.08094C19.4456 8.03552 19.9716 9.33024 19.9716 10.6802H24.9648Z" fill="url(#paint0_linear_394_285)"/>
<path d="M19.2112 14.5759C19.7131 13.3408 19.9714 12.017 19.9714 10.6802H24.964C24.964 16.3025 20.493 20.8603 14.9777 20.8603C14.114 20.8603 13.2758 20.7486 12.4766 20.5384C12.9288 20.4196 13.3733 20.2684 13.8067 20.0854C15.0183 19.5738 16.1192 18.824 17.0465 17.8786C17.9738 16.9333 18.7094 15.8111 19.2112 14.5759Z" fill="#FBCF8E"/>
<path d="M0 10.6802C-1.8761e-07 12.0171 0.258303 13.3409 0.760159 14.576C1.26202 15.8111 1.9976 16.9334 2.92492 17.8787C3.85223 18.824 4.95311 19.5739 6.1647 20.0855C7.37628 20.5971 8.67485 20.8604 9.9863 20.8604C11.2977 20.8604 12.5963 20.5971 13.8079 20.0855C15.0195 19.5739 16.1203 18.824 17.0477 17.8787C17.975 16.9334 18.7105 15.8111 19.2124 14.576C19.7143 13.3409 19.9726 12.0171 19.9726 10.6802H16.8518C15.8177 10.6802 15.0112 11.5636 14.6324 12.5445C14.6217 12.5725 14.6106 12.6003 14.5993 12.6281C14.3484 13.2457 13.9806 13.8068 13.5169 14.2794C13.0533 14.7521 12.5028 15.1271 11.8971 15.3829C11.2913 15.6387 10.642 15.7703 9.9863 15.7703C9.33058 15.7703 8.68129 15.6387 8.07552 15.3829C7.46969 15.1271 6.91928 14.7521 6.45559 14.2794C5.99194 13.8068 5.62415 13.2457 5.37323 12.6281C5.12229 12.0105 4.99314 11.3486 4.99314 10.6802H0Z" fill="url(#paint1_linear_394_285)"/>
<path d="M0 10.6802C0 5.05781 4.471 0.5 9.98624 0.5C10.8498 0.5 11.6877 0.611724 12.4869 0.821774C10.772 1.27212 9.19005 2.18351 7.91652 3.48172C6.04374 5.39085 4.99163 7.98027 4.99163 10.6802H0Z" fill="#754F23"/>
</g>
<defs>
<linearGradient id="paint0_linear_394_285" x1="24.9648" y1="5.5901" x2="4.99219" y2="5.5901" gradientUnits="userSpaceOnUse">
<stop stop-color="#754F23"/>
<stop offset="1" stop-color="#1E1E1E"/>
</linearGradient>
<linearGradient id="paint1_linear_394_285" x1="6.54771e-07" y1="15.7703" x2="19.9726" y2="15.7703" gradientUnits="userSpaceOnUse">
<stop stop-color="#FBDC8E"/>
<stop offset="1" stop-color="#FB958E"/>
</linearGradient>
<clipPath id="clip0_394_285">
<rect width="103" height="21" fill="white" transform="translate(0 0.5)"/>
</clipPath>
</defs>
</svg>
